<svg width="60" height="60" viewBox="0 0 60 60" fill="none" xmlns="http://www.w3.org/2000/svg">
<path d="M54.7415 16.5775C55.542 18.8212 54.4195 20.3573 52.2465 21.8705C50.4932 23.0914 48.2597 24.414 45.893 26.6752C43.5727 28.892 41.3085 31.562 39.296 34.19C36.8575 37.3745 34.5515 40.7007 32.5217 44.1642C31.7565 45.476 30.3802 46.27 28.9047 46.2502C27.429 46.2302 26.0732 45.3997 25.341 44.0672C23.4691 40.6605 22.0246 39.3152 21.3607 38.832C19.5187 37.4912 17.5 37.2592 17.5 34.3342C17.5 31.941 19.3656 30.001 21.6669 30.001C23.3137 30.067 24.8213 30.7725 26.1397 31.7322C26.9952 32.355 27.9012 33.1782 28.8437 34.2622C29.9497 32.628 31.2827 30.7425 32.7767 28.7912C34.9467 25.9577 37.508 22.9177 40.2547 20.2935C42.9547 17.7138 46.0765 15.299 49.3855 14.0223C51.543 13.1898 53.941 14.3338 54.7415 16.5775Z" stroke="#2F4720" stroke-width="1.5" stroke-linecap="round" stroke-linejoin="round"/>
<path d="M11.099 30.1892C10.7029 30.0595 10.3449 29.9777 10.0313 29.9287C9.87487 29.9042 9.73065 29.888 9.5994 29.878L9.24717 29.864C6.90152 29.864 5 31.8205 5 34.2337C5 36.4177 6.55735 38.2275 8.59187 38.5517C8.663 38.5892 8.77842 38.6565 8.93517 38.7695C9.61185 39.2567 11.0842 40.6135 12.9921 44.0487C13.7385 45.3927 15.1203 46.23 16.6246 46.2502C17.655 46.264 18.6379 45.8922 19.4056 45.2315M37.5 13.7505C34.1273 15.038 30.9452 17.4731 28.1932 20.0746C27.2322 20.983 26.2935 21.9408 25.3855 22.9226" stroke="#2F4720" stroke-width="1.5" stroke-linecap="round" stroke-linejoin="round"/>
</svg>
